<?xml version="1.0" standalone="no"?>
<!DOCTYPE svg PUBLIC "-//W3C//DTD SVG 20010904//EN"
 "http://www.w3.org/TR/2001/REC-SVG-20010904/DTD/svg10.dtd">
<svg version="1.0" xmlns="http://www.w3.org/2000/svg"
 width="200.000000pt" height="200.000000pt" viewBox="0 0 200.000000 200.000000"
 preserveAspectRatio="xMidYMid meet">
<metadata>
Created by potrace 1.11, written by Peter Selinger 2001-2013
</metadata>
<g transform="translate(0.000000,200.000000) scale(0.100000,-0.100000)"
fill="#000000" stroke="none">
<path d="M927 1885 c-203 -53 -230 -328 -42 -428 51 -27 154 -29 203 -3 81 42
126 115 127 206 1 159 -135 265 -288 225z m108 -109 c143 -60 58 -275 -89
-226 -109 36 -103 195 9 232 32 10 43 9 80 -6z"/>
<path d="M1506 1563 c-26 -7 -87 -46 -108 -69 -35 -39 -57 -106 -54 -164 9
-170 180 -271 333 -195 183 92 163 361 -31 420 -49 15 -102 18 -140 8z m159
-145 c25 -30 28 -39 27 -91 -1 -57 -56 -109 -115 -109 -70 0 -127 55 -127 123
0 32 27 82 52 98 59 37 121 29 163 -21z"/>
<path d="M385 1539 c-123 -19 -199 -105 -199 -224 0 -170 167 -278 324 -211
108 46 162 177 119 291 -38 102 -138 161 -244 144z m100 -125 c64 -42 65 -157
2 -199 -62 -41 -139 -24 -178 38 -23 37 -21 93 6 133 32 50 116 64 170 28z"/>
<path d="M1054 1287 c-20 -17 -27 -32 -26 -57 1 -39 36 -80 68 -80 80 0 117
87 59 138 -33 28 -67 28 -101 -1z"/>
<path d="M826 1278 c-39 -35 -41 -74 -6 -109 34 -35 70 -37 104 -6 39 34 41
73 6 108 -34 35 -70 37 -104 7z"/>
<path d="M1172 1087 c-37 -40 -28 -98 19 -123 70 -36 140 36 104 106 -24 47
-87 55 -123 17z"/>
<path d="M715 1075 c-41 -40 -30 -96 23 -124 47 -25 112 17 112 71 0 39 -40
78 -80 78 -19 0 -40 -9 -55 -25z"/>
<path d="M1093 905 c-17 -7 -34 -18 -37 -24 -40 -64 22 -146 91 -120 74 28 69
125 -8 151 -8 3 -29 0 -46 -7z"/>
<path d="M1520 909 c-119 -36 -190 -168 -155 -286 49 -161 244 -217 374 -107
51 43 75 99 75 175 0 57 -4 74 -30 115 -54 88 -167 132 -264 103z m122 -110
c86 -40 84 -182 -3 -219 -67 -29 -128 -5 -162 63 -21 43 -17 82 15 122 34 43
99 58 150 34z"/>
<path d="M375 900 c-78 -17 -139 -73 -165 -150 -52 -153 57 -302 220 -303 86
0 165 49 208 127 26 49 22 160 -8 213 -47 84 -159 134 -255 113z m116 -123
c136 -92 8 -287 -134 -203 -28 16 -56 83 -50 119 14 90 110 134 184 84z"/>
<path d="M873 902 c-28 -4 -63 -47 -63 -78 0 -37 40 -75 79 -76 61 -2 103 77
67 124 -16 21 -54 35 -83 30z"/>
<path d="M956 559 c-137 -32 -212 -193 -150 -324 68 -143 267 -174 377 -57 34
36 64 115 62 163 -9 151 -142 251 -289 218z m101 -110 c32 -12 73 -55 74 -78
0 -9 2 -25 4 -35 9 -50 -63 -126 -119 -126 -35 0 -86 30 -106 62 -36 60 -18
131 43 168 36 22 63 25 104 9z"/>
</g>
</svg>
